<?xml version="1.0" encoding="UTF-8" standalone="no"?>
<svg id="BG" xmlns="http://www.w3.org/2000/svg" viewBox="0 0 200 200"><defs><style>.cls-1{fill:none;}.cls-2{fill:#1393F6;}</style></defs><title>Logo_categoria</title><g id="_32px_boxes" data-name="32px boxes"><rect class="cls-1" x="51" y="47.64" width="103.68" height="103.68"/></g><path class="cls-2" d="M100.56,1.09c-53.85,0-97.5,41-97.5,97.5,0,51.18,43.65,97.5,97.5,97.5a97.5,97.5,0,1,0,0-195ZM129,99.53a3.36,3.36,0,0,1-2,2.95c-.37.17-7,3.09-20.15,5.64l5.5,28.43a9.79,9.79,0,0,1-17.94,6.92L74.3,111.52a27.55,27.55,0,0,1-20-26.61A27.23,27.23,0,0,1,80.69,57.68c14.1-1.44,32.16,2.84,45.84,6.73A3.35,3.35,0,0,1,129,67.52Zm22-3.66H135v-9h16Zm0-16H135v-10h16Z"/><circle class="cls-2" cx="81.78" cy="84.91" r="12.15"/></svg>