<svg width="75" height="78" viewBox="0 0 75 78" xmlns="http://www.w3.org/2000/svg"><title>phone_call</title><g fill="none" fill-rule="evenodd"><path d="M71.0341412 74.4101055c0 1.716909-13.9048739 3.1090909-31.0583824 3.1090909-17.1528184 0-31.05838252-1.3921819-31.05838252-3.1090909 0-1.7169091 13.90556412-3.109091 31.05838252-3.109091 17.1535085 0 31.0583824 1.3921819 31.0583824 3.109091" fill="#436E7C" opacity=".2"/><path d="M22.8380551 39.3154473L26.4338457 56.89632c.3264509 1.5953091 1.8972799 2.6337455 3.4915748 2.3069455l27.8187201-5.7020728c1.5942949-.3268 2.6309316-1.8993091 2.3044808-3.4953091L50.7844568 4.71264727c-.3264508-1.5953091-1.89797-2.63374545-3.4915747-2.30694545L19.474162 8.10846545c-1.5942949.3261091-2.6316218 1.8993091-2.3044808 3.4953091l2.6371432 12.89443635" fill="#E8F7FF"/><path d="M25.7598248 32.7932655l2.4770235 12.1081818c.2243055 1.0992363 1.3955256 1.7963636 2.6019444 1.5490182l21.0578056-4.3161091c1.2064188-.2480364 2.0097778-1.3493455 1.784782-2.4478909L47.30075 8.4912291c-.2243056-1.09923637-1.3962158-1.79567274-2.6026346-1.5490182L23.641 11.2590109c-1.2064188.24734546-2.0097778 1.3486546-1.7847821 2.4478909l1.81653 8.8809455" fill="#FFF"/><path d="M42.791035 51.2511782c-1.2512799.2570182-2.4045555-.5050546-2.6606089-1.7583637-.2567436-1.253309.5045149-2.4078181 1.7557948-2.6641454 1.2519701-.2563273 2.4052458.5057454 2.6619894 1.7583636.2560534 1.2533091-.5052052 2.4078182-1.7571753 2.6641455" fill="#436E7C"/><path d="M43.158344 37.2312509c.4348077.0297091.8068098.0241818 1.1035834.0069091l.2063611-.0124364.1325128-.1596c1.3071837-1.5863272 1.7537243-3.6790909 1.8972799-5.1562545l.0213953-.2217818-.1552885-.1589091c-1.3948354-1.4232727-3.8173354-2.5390909-5.7870833-2.6517091l-.1552885-.0089818-.1311324.0849818c-.5383334.3461454-1.4907693 1.2180727-2.0408355 1.8129454-.7136368-.4200727-1.5494338-1.3009818-2.494968-2.6261454-.944844-1.3272364-1.5038824-2.4057455-1.6688333-3.2168727.7426239-.3274909 1.8751945-.9458546 2.3783291-1.3403637l.1228504-.0974182.0421004-.1492363c.5314316-1.8910182.270547-4.5579273-.6197735-6.3411637l-.1000748-.2010545-.2174038-.0511273c-1.2285043-.2943272-3.9753846-.3806909-5.9720492.3661818l-.193938.0732364-.0793697.1920727c-1.0345662 2.4962546-.6943119 7.2745819 3.3714851 13.2170909 3.9595107 5.3393455 8.0322094 6.4807273 10.340141 6.6396364" fill="#0094F9"/><path d="M22.5058068 34.7152364c.0662564.3233454-.1421752.6384-.4651752.7047272-.323.0663273-.6377179-.1423272-.7032842-.4649818-.0662564-.3233454.1414851-.6390909.4637949-.7047273.323-.0670181.6384081.1416364.7046645.4649819" fill="#436E7C"/><path d="M22.5058068 34.7152364c.0662564.3233454-.1421752.6384-.4651752.7047272-.323.0663273-.6377179-.1423272-.7032842-.4649818-.0662564-.3233454.1414851-.6390909.4637949-.7047273.323-.0670181.6384081.1416364.7046645.4649819z" stroke="#436E7C"/><path d="M20.5168032 27.9697527l.7543568 3.6873818" stroke="#436E7C" stroke-width="3" stroke-linecap="round"/><path d="M64.2523835 20.5880109c2.1733483 2.3000364 2.8393633 5.2101455 1.9987351 8.7303273M67.9296833 14.9530945c4.9788932 5.2681819 6.5055513 11.9354546 4.5785941 19.9997455M11.13144466 39.3484727c-2.1733483-2.2993454-2.83936325-5.2101454-1.99873504-8.7296363M7.72979915 46.2734545c-4.97889317-5.2681818-6.5055513-11.9347636-4.57859402-19.9997454" stroke="#D9E2E5" stroke-width="3" stroke-linecap="round"/><path d="M22.8380551 39.3154473L26.4338457 56.89632c.3264509 1.5953091 1.8972799 2.6337455 3.4915748 2.3069455l27.8187201-5.7020728c1.5942949-.3268 2.6309316-1.8993091 2.3044808-3.4953091L50.7844568 4.71264727c-.3264508-1.5953091-1.89797-2.63374545-3.4915747-2.30694545L19.474162 8.10846545c-1.5942949.3261091-2.6316218 1.8993091-2.3044808 3.4953091l2.6371432 12.89443635" stroke="#436E7C" stroke-width="3" stroke-linecap="round"/></g></svg>